<svg width="36" height="36" viewBox="0 0 36 36" fill="none" xmlns="http://www.w3.org/2000/svg">
<path d="M28.0547 31.6406H8.08594C6.98605 31.6395 5.93152 31.2021 5.15378 30.4243C4.37604 29.6466 3.93862 28.5921 3.9375 27.4922V17.2969C3.93862 16.197 4.37604 15.1425 5.15378 14.3647C5.93152 13.587 6.98605 13.1496 8.08594 13.1484H15.1073C15.6481 13.1484 16.1668 12.9336 16.5492 12.5512C16.9316 12.1688 17.1464 11.6502 17.1464 11.1094C17.1475 10.0095 17.5849 8.95496 18.3627 8.17722C19.1404 7.39948 20.195 6.96205 21.2948 6.96094H28.0547C29.1546 6.96205 30.2091 7.39948 30.9868 8.17722C31.7646 8.95496 32.202 10.0095 32.2031 11.1094V27.4922C32.2018 28.592 31.7643 29.6464 30.9866 30.4241C30.2089 31.2018 29.1545 31.6393 28.0547 31.6406ZM8.08594 15.2578C7.54514 15.2578 7.0265 15.4726 6.6441 15.855C6.2617 16.2374 6.04688 16.7561 6.04688 17.2969V27.4922C6.04688 28.033 6.2617 28.5516 6.6441 28.934C7.0265 29.3164 7.54514 29.5312 8.08594 29.5312H28.0547C28.5955 29.5312 29.1141 29.3164 29.4965 28.934C29.8789 28.5516 30.0938 28.033 30.0938 27.4922V11.1094C30.0938 10.5686 29.8789 10.0499 29.4965 9.66754C29.1141 9.28514 28.5955 9.07031 28.0547 9.07031H21.2948C20.754 9.07031 20.2354 9.28514 19.853 9.66754C19.4706 10.0499 19.2558 10.5686 19.2558 11.1094C19.2545 12.2092 18.817 13.2636 18.0393 14.0413C17.2616 14.819 16.2072 15.2565 15.1073 15.2578H8.08594Z" fill="#FA002C"/>
<path d="M8.50781 14.5911C8.22809 14.5911 7.95983 14.4799 7.76204 14.2822C7.56424 14.0844 7.45312 13.8161 7.45312 13.5364V3.76294C7.45312 3.48322 7.56424 3.21496 7.76204 3.01716C7.95983 2.81937 8.22809 2.70825 8.50781 2.70825H27.6328C27.9125 2.70825 28.1808 2.81937 28.3786 3.01716C28.5764 3.21496 28.6875 3.48322 28.6875 3.76294V7.34888C28.6875 7.6286 28.5764 7.89686 28.3786 8.09465C28.1808 8.29245 27.9125 8.40356 27.6328 8.40356C27.3531 8.40356 27.0848 8.29245 26.887 8.09465C26.6892 7.89686 26.5781 7.6286 26.5781 7.34888V4.81763H9.5625V13.5364C9.5625 13.8161 9.45138 14.0844 9.25359 14.2822C9.0558 14.4799 8.78753 14.5911 8.50781 14.5911Z" fill="#FA002C"/>
</svg>
