<svg width="50" height="50" viewBox="0 0 50 50" fill="none" xmlns="http://www.w3.org/2000/svg">
<path d="M25 47C37.1503 47 47 37.1503 47 25C47 12.8497 37.1503 3 25 3C12.8497 3 3 12.8497 3 25C3 37.1503 12.8497 47 25 47Z" fill="url(#paint0_linear_1_1558)"/>
<path d="M35.707 15.6586L31.7796 35.4672C31.7796 35.4672 31.2296 36.8422 29.7171 36.1805L20.6507 29.2281L17.3507 27.6383L11.7991 25.7734C11.7991 25.7734 10.9484 25.4727 10.8624 24.8109C10.7765 24.1492 11.8249 23.7969 11.8249 23.7969L33.8937 15.143C33.8937 15.1344 35.707 14.3352 35.707 15.6586Z" fill="white"/>
<path d="M19.9459 35.2438C19.9459 35.2438 19.6795 35.2181 19.3529 34.1782C19.0264 33.1384 17.3506 27.6384 17.3506 27.6384L30.6795 19.1735C30.6795 19.1735 31.4529 18.7095 31.4186 19.1735C31.4186 19.1735 31.5561 19.2595 31.1436 19.6376C30.7311 20.0243 20.6764 29.0649 20.6764 29.0649" fill="#D2E4F0"/>
<path d="M24.123 31.8922L20.5395 35.1664C20.5395 35.1664 20.2559 35.3813 19.9551 35.2438L20.6426 29.168" fill="#B5CFE4"/>
<defs>
<linearGradient id="paint0_linear_1_1558" x1="25" y1="3" x2="25" y2="46.8395" gradientUnits="userSpaceOnUse">
<stop stop-color="#41BCE7"/>
<stop offset="1" stop-color="#22A6DC"/>
</linearGradient>
</defs>
</svg>
