<svg width="56" height="56" viewBox="0 0 56 56" fill="none" xmlns="http://www.w3.org/2000/svg">
<path d="M52.1048 15.847C51.5261 13.6684 49.8213 11.9524 47.6566 11.37C43.7331 10.312 28 10.312 28 10.312C28 10.312 12.267 10.312 8.34325 11.3701C6.17861 11.9525 4.47378 13.6684 3.89518 15.8472C2.84387 19.7961 2.84387 28.0357 2.84387 28.0357C2.84387 28.0357 2.84387 36.2753 3.89518 40.2242C4.47378 42.403 6.17861 44.0474 8.34325 44.6299C12.267 45.6879 28 45.6879 28 45.6879C28 45.6879 43.7331 45.6879 47.6566 44.6298C49.8213 44.0473 51.5261 42.4029 52.1048 40.2241C53.1562 36.2752 53.1562 28.0356 53.1562 28.0356C53.1562 28.0356 53.1562 19.7961 52.1048 15.847Z" fill="#FF0000"/>
<path d="M22.8546 35.5164V20.5547L36.0043 28.0357L22.8546 35.5164Z" fill="white"/>
</svg>
