<svg width="36" height="36" viewBox="0 0 36 36" fill="none" xmlns="http://www.w3.org/2000/svg">
<path d="M31 31H5C3.89543 31 3 30.1046 3 29V11.625C3 10.5204 3.89543 9.625 5 9.625H9.88889C10.9935 9.625 11.8889 8.72957 11.8889 7.625V6C11.8889 4.89543 12.7843 4 13.8889 4H22.1111C23.2157 4 24.1111 4.89543 24.1111 6V7.625C24.1111 8.72957 25.0065 9.625 26.1111 9.625H31C32.1046 9.625 33 10.5204 33 11.625V29C33 30.1046 32.1046 31 31 31Z" stroke="#FA002C" stroke-width="2.5"/>
<circle cx="18" cy="20" r="6" stroke="#FA002C" stroke-width="2.5"/>
</svg>
