<svg width="38" height="36" viewBox="0 0 38 36" fill="none" xmlns="http://www.w3.org/2000/svg">
<path fill-rule="evenodd" clip-rule="evenodd" d="M4.8512 14.5264H10.5854V31.251H4.8512C4.32339 31.251 3.89551 30.675 3.89551 29.9645V15.8129C3.89551 15.1024 4.32339 14.5264 4.8512 14.5264Z" stroke="#FA002C" stroke-width="2.5" stroke-linecap="round" stroke-linejoin="round"/>
<path d="M10.5852 15.7807L16.1038 5.08846C16.919 3.50871 18.8606 2.88906 20.4403 3.7044C20.7354 3.85673 21.0052 4.05381 21.2401 4.28866C22.181 5.22961 22.7096 6.5058 22.7096 7.8365V12.8539H31.4915C32.2111 12.8539 32.896 13.1629 33.3722 13.7023C33.8484 14.2418 34.0701 14.9598 33.9808 15.6738L32.0993 29.0535C31.9423 30.3089 30.8751 31.251 29.61 31.251H10.5852" stroke="#FA002C" stroke-width="2.5" stroke-linecap="round" stroke-linejoin="round"/>
</svg>
