<svg width="36" height="36" viewBox="0 0 36 36" fill="none" xmlns="http://www.w3.org/2000/svg">
<path d="M13.333 21.3333L22.6663 11.3333" stroke="#FA002C" stroke-width="2.5" stroke-linecap="round" stroke-linejoin="round"/>
<path d="M13.5 14C14.3284 14 15 13.3284 15 12.5C15 11.6716 14.3284 11 13.5 11C12.6716 11 12 11.6716 12 12.5C12 13.3284 12.6716 14 13.5 14Z" stroke="#FA002C" stroke-width="2.5" stroke-linecap="round" stroke-linejoin="round"/>
<path d="M22.5 22C23.3284 22 24 21.3284 24 20.5C24 19.6716 23.3284 19 22.5 19C21.6716 19 21 19.6716 21 20.5C21 21.3284 21.6716 22 22.5 22Z" stroke="#FA002C" stroke-width="2.5" stroke-linecap="round" stroke-linejoin="round"/>
<path d="M6 33.3334V6.07416C6 5.17045 6.36122 4.30377 7.00421 3.66475C7.64719 3.02574 8.51926 2.66675 9.42857 2.66675H26.5714C27.4807 2.66675 28.3528 3.02574 28.9958 3.66475C29.6388 4.30377 30 5.17045 30 6.07416V33.3334L24.8571 29.926L21.4286 33.3334L18 29.926L14.5714 33.3334L11.1429 29.926L6 33.3334Z" stroke="#FA002C" stroke-width="2.5" stroke-linecap="round" stroke-linejoin="round"/>
</svg>
